<svg xmlns="http://www.w3.org/2000/svg" width="48" height="48" viewBox="0 0 24 24" fill="none" stroke="currentColor" stroke-width="2" stroke-linecap="round" stroke-linejoin="round">
<defs>
  <clipPath id="r">
    <rect x="2" y="3" width="20" height="18" rx="6" ry="6"/>
  </clipPath>
</defs>
<rect x="2" y="3" width="20" height="14" rx="6"/>
<path d="M14 9c0 3-2 5-5 5H7"/>
<path d="M7 14c0 2 1.5 4 5 4s6-2 6-5"/>
<circle cx="9" cy="10" r="1" fill="currentColor" stroke="none"/>
<path d="M18 6c.5-.8 1.5-1.2 2.2-.8.6.4.8 1.2.5 1.9-.5 1.1-1.9 2.1-3.3 2.4" />
<path d="M6 8c1-.6 2-.9 3-.9"/>
</svg>